# xmcd
#
# Track frame offsets:
#	150
#	15858
#	31715
#	52758
#	69769
#	85803
#	102872
#	123596
#	150439
#	164668
#	190775
#	206160
#	229809
#	250369
#
# Disc length: 3538 seconds
#
# Revision: 3
# Processed by: cddbd v1.4PL0 Copyright (c) Steve Scherf et al.
# Submitted via: CDmax 1.8
#
DISCID=a50dd00e
DTITLE=Hitman Blues Band - Angel In The Shadows
DYEAR=2003
DGENRE=Blues
TTITLE0=Slither
TTITLE1=Fine Piece Of Merchandise
TTITLE2=Angel In The Shadows
TTITLE3=Hammer Down
TTITLE4=Hitman Moan
TTITLE5=I Know That You Love Me
TTITLE6=Sharing This Christmas With The Blues
TTITLE7=Drinking My Blues Away
TTITLE8=Listen To The Wind Blow
TTITLE9=That's What It's Like To Be A Man
TTITLE10=Living In A Hurricane
TTITLE11=Two Minute Warning
TTITLE12=On The Rebound
TTITLE13=Mean Mistreater
EXTD=
EXTT0=
EXTT1=
EXTT2=
EXTT3=
EXTT4=
EXTT5=
EXTT6=
EXTT7=
EXTT8=
EXTT9=
EXTT10=
EXTT11=
EXTT12=
EXTT13=
PLAYORDER=
